<svg xmlns="http://www.w3.org/2000/svg" width="64.000000pt" height="73.000000pt" viewBox="0 0 64.000000 73.000000" preserveAspectRatio="xMidYMid meet"><g transform="translate(0.000000,73.000000) scale(0.100000,-0.100000)" fill="#000000" stroke="none"><path d="M30 612 c0 -95 14 -132 51 -132 17 0 319 204 319 216 0 2 -83 4 -185 4 l-185 0 0 -88z"></path><path d="M385 542 c-169 -119 -211 -153 -213 -173 -2 -15 4 -32 15 -41 14 -12 197 -142 396 -280 l27 -19 0 65 0 65 -146 102 c-80 56 -142 105 -137 109 4 4 70 51 146 104 l137 97 0 59 c0 33 -3 60 -8 60 -4 0 -102 -67 -217 -148z"></path><path d="M50 230 c-17 -17 -20 -33 -20 -110 l0 -90 187 0 c113 0 183 4 178 9 -29 27 -300 211 -311 211 -8 0 -23 -9 -34 -20z"></path></g></svg>